# xmcd
#
# Track frame offsets:
#	210
#	23639
#	43431
#	63389
#	84434
#	100912
#	122367
#	143656
#	167091
#	189117
#	216606
#
# Disc length: 3248 seconds
#
# Revision: 1
# Processed by: cddbd v1.5.1PL0 Copyright (c) Steve Scherf et al.
# Submitted via: audiograbber 1.82.02
#
DISCID=930cae0b
DTITLE=Oscar Klein and Heini Altbart - Body and Soul
DYEAR=1900
DGENRE=Blues
TTITLE0=Funky Blues
TTITLE1=Perdido
TTITLE2=Sweet Georgia Brown
TTITLE3=Jessica
TTITLE4=Harp Blues
TTITLE5=C_Jam Blues
TTITLE6=Out of nowhere
TTITLE7=I´ve found a new baby
TTITLE8=Lil´ Darlin´ 
TTITLE9=In a mellow tone
TTITLE10=Body and Soul
EXTD=
EXTT0=
EXTT1=
EXTT2=
EXTT3=
EXTT4=
EXTT5=
EXTT6=
EXTT7=
EXTT8=
EXTT9=
EXTT10=
PLAYORDER=
